<svg width="512" height="512" viewBox="0 0 512 512" fill="none" xmlns="http://www.w3.org/2000/svg">
<circle cx="256" cy="256" r="229" fill="#1C1A1A" stroke="white" stroke-width="8"/>
<path d="M154 329H357" stroke="#7E6AFA" stroke-width="5" stroke-linecap="round"/>
<path d="M182.808 246.93L165.861 223.683L174.744 217.383L191.502 240.441L182.808 246.93ZM170.019 240.63C166.617 240.63 163.488 240.063 160.632 238.929C157.776 237.795 155.298 236.199 153.198 234.141C151.098 232.083 149.46 229.668 148.284 226.896C147.15 224.082 146.583 221.016 146.583 217.698C146.583 214.338 147.15 211.272 148.284 208.5C149.46 205.728 151.098 203.313 153.198 201.255C155.298 199.197 157.776 197.601 160.632 196.467C163.488 195.333 166.617 194.766 170.019 194.766C173.421 194.766 176.529 195.333 179.343 196.467C182.199 197.601 184.677 199.197 186.777 201.255C188.919 203.313 190.557 205.728 191.691 208.5C192.825 211.272 193.392 214.338 193.392 217.698C193.392 221.016 192.825 224.082 191.691 226.896C190.557 229.668 188.919 232.083 186.777 234.141C184.677 236.199 182.199 237.795 179.343 238.929C176.529 240.063 173.421 240.63 170.019 240.63ZM170.019 229.038C171.531 229.038 172.938 228.765 174.24 228.219C175.542 227.673 176.676 226.896 177.642 225.888C178.608 224.838 179.343 223.62 179.847 222.234C180.393 220.848 180.666 219.336 180.666 217.698C180.666 216.06 180.393 214.548 179.847 213.162C179.343 211.776 178.608 210.579 177.642 209.571C176.676 208.521 175.542 207.723 174.24 207.177C172.938 206.631 171.531 206.358 170.019 206.358C168.465 206.358 167.037 206.631 165.735 207.177C164.433 207.723 163.299 208.521 162.333 209.571C161.367 210.579 160.611 211.776 160.065 213.162C159.561 214.506 159.309 216.018 159.309 217.698C159.309 219.336 159.561 220.848 160.065 222.234C160.611 223.62 161.367 224.838 162.333 225.888C163.299 226.896 164.433 227.673 165.735 228.219C167.037 228.765 168.465 229.038 170.019 229.038ZM170.019 319.63C166.365 319.63 163.089 319.063 160.191 317.929C157.293 316.795 154.815 315.199 152.757 313.141C150.741 311.083 149.208 308.647 148.158 305.833C147.108 303.019 146.583 299.974 146.583 296.698C146.583 293.38 147.15 290.335 148.284 287.563C149.46 284.749 151.14 282.313 153.324 280.255C155.508 278.197 158.07 276.601 161.01 275.467C163.992 274.333 167.289 273.766 170.901 273.766C173.379 273.766 175.71 274.081 177.894 274.711C180.12 275.341 182.115 276.202 183.879 277.294C185.643 278.386 187.155 279.604 188.415 280.948L180.981 288.886C180.057 288.004 179.07 287.248 178.02 286.618C177.012 285.988 175.899 285.484 174.681 285.106C173.505 284.728 172.182 284.539 170.712 284.539C169.074 284.539 167.562 284.854 166.176 285.484C164.832 286.072 163.656 286.912 162.648 288.004C161.64 289.054 160.842 290.335 160.254 291.847C159.708 293.317 159.435 294.934 159.435 296.698C159.435 298.42 159.729 300.037 160.317 301.549C160.905 303.019 161.724 304.3 162.774 305.392C163.824 306.484 165.063 307.345 166.491 307.975C167.961 308.563 169.536 308.857 171.216 308.857C172.392 308.857 173.484 308.668 174.492 308.29C175.5 307.912 176.361 307.408 177.075 306.778C177.831 306.106 178.419 305.329 178.839 304.447C179.259 303.523 179.469 302.536 179.469 301.486V299.722L181.107 302.368H169.515V293.296H190.809C190.851 293.758 190.893 294.472 190.935 295.438C191.019 296.362 191.061 297.286 191.061 298.21C191.103 299.134 191.124 299.785 191.124 300.163C191.124 302.977 190.599 305.581 189.549 307.975C188.499 310.369 187.029 312.427 185.139 314.149C183.249 315.871 181.023 317.215 178.461 318.181C175.899 319.147 173.085 319.63 170.019 319.63Z" fill="#7E6AFA"/>
<path d="M211.737 240.693C209.217 240.693 207.075 240.168 205.311 239.118C203.547 238.026 202.203 236.472 201.279 234.456C200.355 232.44 199.893 230.004 199.893 227.148V206.421H211.611V225.951C211.611 227.043 211.8 227.967 212.178 228.723C212.556 229.479 213.081 230.067 213.753 230.487C214.425 230.865 215.244 231.054 216.21 231.054C216.966 231.054 217.638 230.949 218.226 230.739C218.856 230.529 219.381 230.214 219.801 229.794C220.221 229.332 220.557 228.828 220.809 228.282C221.061 227.694 221.187 227.064 221.187 226.392V206.421H232.905V240H222.069L221.439 233.196L223.644 232.44C223.182 233.994 222.363 235.401 221.187 236.661C220.011 237.921 218.604 238.908 216.966 239.622C215.328 240.336 213.585 240.693 211.737 240.693ZM242.242 240V206.421H253.96V240H242.242ZM248.101 200.058C245.959 200.058 244.3 199.575 243.124 198.609C241.948 197.601 241.36 196.194 241.36 194.388C241.36 192.708 241.948 191.343 243.124 190.293C244.342 189.201 246.001 188.655 248.101 188.655C250.201 188.655 251.839 189.159 253.015 190.167C254.233 191.133 254.842 192.54 254.842 194.388C254.842 196.068 254.233 197.433 253.015 198.483C251.797 199.533 250.159 200.058 248.101 200.058ZM261.891 240V234.078L280.035 211.272V215.745H261.891V206.421H291.249V212.721L274.428 234.708L274.176 230.676H291.879V240H261.891ZM214.25 319.63C210.428 319.63 207.131 318.895 204.359 317.425C201.587 315.913 199.445 313.855 197.933 311.251C196.421 308.605 195.665 305.602 195.665 302.242C195.665 299.722 196.085 297.391 196.925 295.249C197.765 293.107 198.941 291.259 200.453 289.705C201.965 288.109 203.75 286.891 205.808 286.051C207.908 285.169 210.197 284.728 212.675 284.728C215.111 284.728 217.316 285.148 219.29 285.988C221.306 286.828 223.028 288.025 224.456 289.579C225.926 291.133 227.039 292.96 227.795 295.06C228.593 297.16 228.95 299.47 228.866 301.99L228.803 304.636H202.343L200.894 298.777H219.416L218.282 300.037V298.84C218.282 297.916 218.03 297.118 217.526 296.446C217.064 295.732 216.434 295.186 215.636 294.808C214.838 294.43 213.935 294.241 212.927 294.241C211.499 294.241 210.302 294.535 209.336 295.123C208.412 295.669 207.698 296.467 207.194 297.517C206.69 298.567 206.438 299.827 206.438 301.297C206.438 302.977 206.774 304.426 207.446 305.644C208.16 306.862 209.189 307.807 210.533 308.479C211.919 309.151 213.599 309.487 215.573 309.487C216.875 309.487 218.009 309.319 218.975 308.983C219.983 308.647 221.054 308.059 222.188 307.219L227.606 314.842C226.136 316.018 224.645 316.963 223.133 317.677C221.663 318.349 220.193 318.832 218.723 319.126C217.253 319.462 215.762 319.63 214.25 319.63ZM234.973 319V285.421H245.935L246.439 292.225L244.045 292.981C244.465 291.385 245.284 289.978 246.502 288.76C247.72 287.5 249.169 286.513 250.849 285.799C252.529 285.085 254.293 284.728 256.141 284.728C258.661 284.728 260.782 285.253 262.504 286.303C264.268 287.311 265.591 288.844 266.473 290.902C267.397 292.918 267.859 295.396 267.859 298.336V319H256.141V299.281C256.141 298.189 255.973 297.286 255.637 296.572C255.301 295.816 254.797 295.249 254.125 294.871C253.453 294.493 252.655 294.325 251.731 294.367C251.017 294.367 250.345 294.472 249.715 294.682C249.127 294.892 248.602 295.228 248.14 295.69C247.678 296.11 247.321 296.593 247.069 297.139C246.859 297.685 246.754 298.294 246.754 298.966V319H240.895C239.467 319 238.249 319 237.241 319C236.275 319 235.519 319 234.973 319ZM276.511 319V285.421H288.229V319H276.511ZM282.37 279.058C280.228 279.058 278.569 278.575 277.393 277.609C276.217 276.601 275.629 275.194 275.629 273.388C275.629 271.708 276.217 270.343 277.393 269.293C278.611 268.201 280.27 267.655 282.37 267.655C284.47 267.655 286.108 268.159 287.284 269.167C288.502 270.133 289.111 271.54 289.111 273.388C289.111 275.068 288.502 276.433 287.284 277.483C286.066 278.533 284.428 279.058 282.37 279.058ZM308.76 319.693C306.24 319.693 304.098 319.168 302.334 318.118C300.57 317.026 299.226 315.472 298.302 313.456C297.378 311.44 296.916 309.004 296.916 306.148V285.421H308.634V304.951C308.634 306.043 308.823 306.967 309.201 307.723C309.579 308.479 310.104 309.067 310.776 309.487C311.448 309.865 312.267 310.054 313.233 310.054C313.989 310.054 314.661 309.949 315.249 309.739C315.879 309.529 316.404 309.214 316.824 308.794C317.244 308.332 317.58 307.828 317.832 307.282C318.084 306.694 318.21 306.064 318.21 305.392V285.421H329.928V319H319.092L318.462 312.196L320.667 311.44C320.205 312.994 319.386 314.401 318.21 315.661C317.034 316.921 315.627 317.908 313.989 318.622C312.351 319.336 310.608 319.693 308.76 319.693ZM350.353 319.63C346.867 319.63 343.801 319.084 341.155 317.992C338.509 316.9 336.451 315.493 334.981 313.771L341.848 307.849C343.192 309.067 344.704 309.97 346.384 310.558C348.106 311.146 349.618 311.44 350.92 311.44C351.382 311.44 351.802 311.398 352.18 311.314C352.558 311.23 352.852 311.104 353.062 310.936C353.314 310.726 353.503 310.516 353.629 310.306C353.797 310.054 353.881 309.781 353.881 309.487C353.881 308.773 353.524 308.227 352.81 307.849C352.432 307.681 351.802 307.471 350.92 307.219C350.08 306.925 348.946 306.61 347.518 306.274C345.754 305.812 344.179 305.266 342.793 304.636C341.407 303.964 340.231 303.187 339.265 302.305C338.341 301.423 337.606 300.415 337.06 299.281C336.556 298.105 336.304 296.824 336.304 295.438C336.304 293.758 336.682 292.267 337.438 290.965C338.194 289.663 339.244 288.55 340.588 287.626C341.932 286.66 343.444 285.946 345.124 285.484C346.804 284.98 348.526 284.728 350.29 284.728C352.264 284.728 354.112 284.938 355.834 285.358C357.598 285.736 359.236 286.303 360.748 287.059C362.302 287.773 363.688 288.655 364.906 289.705L358.858 296.383C358.144 295.753 357.304 295.165 356.338 294.619C355.414 294.073 354.448 293.632 353.44 293.296C352.432 292.918 351.487 292.729 350.605 292.729C350.059 292.729 349.597 292.771 349.219 292.855C348.841 292.939 348.526 293.065 348.274 293.233C348.022 293.401 347.833 293.611 347.707 293.863C347.581 294.115 347.518 294.388 347.518 294.682C347.518 295.06 347.623 295.417 347.833 295.753C348.043 296.089 348.379 296.362 348.841 296.572C349.219 296.782 349.849 297.055 350.731 297.391C351.655 297.685 352.978 298.063 354.7 298.525C356.632 299.071 358.312 299.701 359.74 300.415C361.168 301.129 362.323 301.948 363.205 302.872C363.835 303.586 364.318 304.384 364.654 305.266C364.99 306.106 365.158 307.051 365.158 308.101C365.158 310.327 364.507 312.322 363.205 314.086C361.945 315.808 360.202 317.173 357.976 318.181C355.75 319.147 353.209 319.63 350.353 319.63Z" fill="white"/>
</svg>
